<?xml version="1.0" standalone="no"?><!DOCTYPE svg PUBLIC "-//W3C//DTD SVG 1.1//EN" "http://www.w3.org/Graphics/SVG/1.1/DTD/svg11.dtd"><svg t="1620805317857" class="icon" viewBox="0 0 1024 1024" version="1.1" xmlns="http://www.w3.org/2000/svg" p-id="14373" xmlns:xlink="http://www.w3.org/1999/xlink" width="128" height="128"><defs><style type="text/css"></style></defs><path d="M740.430769 230.4c-29.538462 9.846154-55.138462 19.692308-72.861538 27.569231-15.753846 7.876923-33.476923 17.723077-55.138462 31.507692 1.969231 37.415385 1.969231 68.923077 0 94.523077-1.969231 25.6-7.876923 61.046154-15.753846 110.276923 55.138462 39.384615 96.492308 70.892308 120.123077 90.584615 3.938462 1.969231 13.784615 11.815385 17.723077 15.753847l84.676923-35.446154 1.969231-1.969231c11.815385-27.569231 21.661538-63.015385 29.538461-108.307692 5.907692-37.415385 7.876923-78.769231 3.938462-124.061539l-114.215385-100.430769zM710.892308 177.230769l-1.969231-5.907692C651.815385 137.846154 582.892308 118.153846 512 118.153846c-39.384615 0-76.8 5.907692-112.246154 15.753846v53.169231c33.476923 3.938462 61.046154 9.846154 84.676923 17.723077 23.630769 7.876923 53.169231 21.661538 88.615385 39.384615 27.569231-17.723077 49.230769-29.538462 68.923077-39.384615 17.723077-7.876923 41.353846-17.723077 68.923077-27.569231zM437.169231 846.769231c70.892308-7.876923 118.153846-15.753846 143.753846-21.661539 27.569231-7.876923 53.169231-13.784615 74.830769-21.661538 17.723077-39.384615 27.569231-68.923077 33.476923-90.584616 3.938462-15.753846 7.876923-37.415385 11.815385-64.984615-7.876923-5.907692-15.753846-11.815385-21.661539-17.723077-23.630769-19.692308-66.953846-51.2-124.061538-94.523077-27.569231 17.723077-51.2 27.569231-72.861539 33.476923-21.661538 5.907692-55.138462 11.815385-102.4 17.723077-17.723077 35.446154-29.538462 64.984615-33.476923 86.646154-5.907692 19.692308-9.846154 49.230769-13.784615 86.646154 17.723077 21.661538 31.507692 35.446154 43.323077 45.292308 11.815385 9.846154 33.476923 23.630769 61.046154 39.384615zM185.107692 736.492308H275.692308c3.938462-31.507692 7.876923-57.107692 13.784615-76.8 3.938462-23.630769 15.753846-53.169231 31.507692-86.646154-21.661538-25.6-47.261538-55.138462-59.076923-72.861539-9.846154-17.723077-25.6-35.446154-43.323077-76.8-7.876923 0-17.723077 1.969231-25.6 3.938462-21.661538 7.876923-45.292308 21.661538-72.861538 39.384615-1.969231 15.753846-1.969231 31.507692-1.969231 47.261539 0 82.707692 25.6 157.538462 66.953846 222.523077z m706.953846-120.123077c9.846154-33.476923 13.784615-66.953846 13.784616-102.4v-27.569231c-7.876923 33.476923-15.753846 61.046154-25.6 86.646154 3.938462 3.938462 5.907692 9.846154 7.876923 15.753846 1.969231 5.907692 3.938462 15.753846 3.938461 27.569231zM208.738462 364.307692l1.96923-3.938461c27.569231-45.292308 49.230769-76.8 64.984616-96.492308 13.784615-17.723077 37.415385-37.415385 66.953846-63.015385-1.969231-15.753846-1.969231-31.507692-1.969231-43.323076-94.523077 45.292308-167.384615 128-202.830769 230.4 13.784615-5.907692 25.6-11.815385 37.415384-15.753847 9.846154-3.938462 21.661538-5.907692 33.476924-7.876923z m523.815384 478.523077c-35.446154 11.815385-80.738462 23.630769-137.846154 39.384616-27.569231 7.876923-76.8 13.784615-149.661538 21.661538 21.661538 3.938462 45.292308 5.907692 66.953846 5.907692 80.738462 0 157.538462-25.6 220.553846-66.953846zM984.615385 513.969231c0 261.907692-212.676923 474.584615-472.615385 474.584615S39.384615 775.876923 39.384615 513.969231 252.061538 39.384615 512 39.384615s472.615385 212.676923 472.615385 474.584616z" p-id="14374"></path></svg>