<?xml version="1.0" standalone="no"?><!DOCTYPE svg PUBLIC "-//W3C//DTD SVG 1.1//EN" "http://www.w3.org/Graphics/SVG/1.1/DTD/svg11.dtd"><svg t="1620145370547" class="icon" viewBox="0 0 1024 1024" version="1.1" xmlns="http://www.w3.org/2000/svg" p-id="1400" xmlns:xlink="http://www.w3.org/1999/xlink" width="48" height="48"><defs><style type="text/css"></style></defs><path d="M317.142857 762.857143l44.571429-80.571429q-49.714286-36-77.714286-90.857143t-28-116q0-69.142857 34.857143-128.571428-130.857143 66.857143-217.714286 201.714286 95.428571 147.428571 244 214.285714z m222.285714-433.714286q0-11.428571-8-19.428571t-19.428571-8q-71.428571 0-122.571429 51.142857T338.285714 475.428571q0 11.428571 8 19.428572t19.428572 8 19.428571-8 8-19.428572q0-49.142857 34.857143-84t84-34.857142q11.428571 0 19.428571-8t8-19.428572z m207.428572-109.142857q0 4-0.571429 5.142857-60 107.428571-180 323.428572t-180.571428 324l-28 50.857142q-5.714286 9.142857-16 9.142858-6.857143 0-76.571429-40-9.142857-5.714286-9.142857-16 0-6.857143 25.142857-49.714286-81.714286-37.142857-150.571428-98.857143T11.428571 588Q0 570.285714 0 548.571429t11.428571-39.428572q87.428571-134.285714 217.142858-212t283.428571-77.714286q50.857143 0 102.857143 9.714286l30.857143-55.428571q5.714286-9.142857 16-9.142857 2.857143 0 10.285714 3.428571t17.714286 8.857143 18.857143 10.571428 18 10.571429T737.714286 204.571429q9.142857 5.714286 9.142857 15.428571z m21.142857 255.428571q0 79.428571-45.142857 144.857143T603.428571 714.285714l160-286.857143q4.571429 25.714286 4.571429 48z m256 73.142858q0 20-11.428571 39.428571-22.285714 36.571429-62.285715 82.857143-85.714286 98.285714-198.571428 152.571428T512 877.714286l42.285714-75.428572q121.142857-10.285714 224.285715-78.285714T950.857143 548.571429q-65.714286-102.285714-161.142857-168l36-64q54.285714 36.571429 104.285714 87.428571T1012.571429 509.142857q11.428571 19.428571 11.428571 39.428572z" p-id="1401" fill="#ffffff"></path></svg>