<?xml version="1.0" standalone="no"?><!DOCTYPE svg PUBLIC "-//W3C//DTD SVG 1.1//EN" "http://www.w3.org/Graphics/SVG/1.1/DTD/svg11.dtd"><svg t="1620143936228" class="icon" viewBox="0 0 1024 1024" version="1.1" xmlns="http://www.w3.org/2000/svg" p-id="936" width="48" height="48" xmlns:xlink="http://www.w3.org/1999/xlink"><defs><style type="text/css"></style></defs><path d="M923.85714299 546.32142897c-50.933-78.83632103-120.67414299-146.41521402-204.31546402-189.317A238.29367897 238.29367897 0 0 1 752.25 477.67857103c0 132.44639299-107.80360701 240.25-240.25 240.25s-240.25-107.80360701-240.25-240.25c0-42.35264299 11.25742897-84.19046402 32.70832103-120.67414206C220.78267897 399.90621402 151.07585701 467.48510701 100.14285701 546.32142897c91.70685701 141.57589299 239.70085701 240.25 411.85714299 240.25s320.15028598-98.67410701 411.85714299-240.25zM537.74107103 340.39285701a26.08428598 26.08428598 0 0 0-25.74107103-25.74107103c-89.54460701 0-163.02678598 73.48217897-163.02678598 163.02678505 0 13.9345 11.80657103 25.74107103 25.74107196 25.74107196s25.74107103-11.80657103 25.74107103-25.74107196A112.16242897 112.16242897 0 0 1 512 366.13392897a26.08428598 26.08428598 0 0 0 25.74107103-25.74107196zM992.5 546.32142897c0 13.41967897-4.29017897 25.74107103-10.74260701 36.9985C883.08328598 745.79757103 702.34664299 855.21428598 512 855.21428598S140.88239299 745.28275 42.24260701 583.31992897C35.8245 572.0625 31.5 559.70678598 31.5 546.32142897s4.29017897-25.74107103 10.74260701-36.9985C140.91671402 347.36010701 321.65335701 237.42857103 512 237.42857103s371.11760701 109.93153598 469.75739299 271.89435794c6.41810701 11.25742897 10.74260701 23.61314299 10.74260701 36.9985z" fill="#ffffff" p-id="937"></path></svg>