<?xml version="1.0" standalone="no"?><!DOCTYPE svg PUBLIC "-//W3C//DTD SVG 1.1//EN" "http://www.w3.org/Graphics/SVG/1.1/DTD/svg11.dtd"><svg t="1620721819667" class="icon" viewBox="0 0 1024 1024" version="1.1" xmlns="http://www.w3.org/2000/svg" p-id="5052" xmlns:xlink="http://www.w3.org/1999/xlink" width="128" height="128"><defs><style type="text/css"></style></defs><path d="M863.721739 554.295652c24.486957-48.973913 28.93913-102.4 28.93913-160.278261C892.66087 189.217391 734.608696 22.26087 527.582609 22.26087 320.556522 22.26087 162.504348 189.217391 162.504348 394.017391c0 57.878261 4.452174 111.304348 28.93913 160.278261L51.2 792.486957c0 0 95.721739 35.617391 193.669565 55.652174 64.556522 73.46087 117.982609 151.373913 117.982609 151.373913l129.113043-247.095652c8.904348 0 20.034783 0 26.713043 0 8.904348 0 20.034783 0 26.713043 0l138.017391 233.73913c0 0 57.878261-64.556522 124.66087-138.017391 97.947826-20.034783 193.669565-55.652174 193.669565-55.652174L863.721739 554.295652 863.721739 554.295652 863.721739 554.295652zM353.947826 903.791304c0 0-46.747826-60.104348-89.043478-102.4-62.330435-17.808696-144.695652-35.617391-144.695652-35.617391L215.930435 601.043478c51.2 66.782609 135.791304 129.113043 220.382609 149.147826L353.947826 903.791304 353.947826 903.791304zM520.904348 710.121739c-80.13913 0-309.426087-48.973913-316.104348-316.104348C198.121739 224.834783 351.721739 64.556522 520.904348 64.556522c169.182609 0 329.46087 162.504348 329.46087 329.46087C852.591304 650.017391 601.043478 710.121739 520.904348 710.121739L520.904348 710.121739zM685.634783 903.791304l-82.365217-151.373913c84.591304-20.034783 182.53913-84.591304 233.73913-151.373913l95.721739 164.730435c0 0-82.365217 17.808696-144.695652 35.617391L685.634783 903.791304 685.634783 903.791304zM527.582609 175.86087c-117.982609 0-213.704348 95.721739-213.704348 213.704348s95.721739 213.704348 213.704348 213.704348c117.982609 0 213.704348-95.721739 213.704348-213.704348S645.565217 175.86087 527.582609 175.86087L527.582609 175.86087 527.582609 175.86087zM534.26087 558.747826c-53.426087 0-169.182609-20.034783-178.086957-178.086957-4.452174-84.591304 95.721739-164.730435 178.086957-164.730435 84.591304 0 162.504348 95.721739 164.730435 178.086957C701.217391 505.321739 587.686957 558.747826 534.26087 558.747826L534.26087 558.747826zM534.26087 558.747826" p-id="5053"></path></svg>