<?xml version="1.0" standalone="no"?><!DOCTYPE svg PUBLIC "-//W3C//DTD SVG 1.1//EN" "http://www.w3.org/Graphics/SVG/1.1/DTD/svg11.dtd"><svg t="1621445814930" class="icon" viewBox="0 0 1024 1024" version="1.1" xmlns="http://www.w3.org/2000/svg" p-id="4069" xmlns:xlink="http://www.w3.org/1999/xlink" width="128" height="128"><defs><style type="text/css"></style></defs><path d="M73.142379 731.42881C32.73119 731.42881 0 764.16 0 804.57119s32.73119 73.142379 73.142379 73.142379c40.374379 0 73.142379-32.73119 73.142379-73.142379C146.286431 764.19681 113.553569 731.42881 73.142379 731.42881zM329.142379 256l658.284758 0c20.18719 0 36.57119-16.384 36.57119-36.57119 0-20.18719-16.384-36.57119-36.57119-36.57119L329.142379 182.857621c-20.18719 0-36.57119 16.384-36.57119 36.57119C292.57119 239.616 308.95519 256 329.142379 256zM73.142379 438.857621C32.73119 438.857621 0 471.625621 0 512c0 40.41119 32.73119 73.142379 73.142379 73.142379 40.374379 0 73.142379-32.768 73.142379-73.142379C146.286431 471.625621 113.553569 438.857621 73.142379 438.857621zM987.42881 475.42881 329.142379 475.42881c-20.18719 0-36.57119 16.384-36.57119 36.57119 0 20.18719 16.384 36.57119 36.57119 36.57119l658.284758 0c20.18719 0 36.57119-16.384 36.57119-36.57119C1024 491.81281 1007.616 475.42881 987.42881 475.42881zM987.42881 768 329.142379 768c-20.18719 0-36.57119 16.384-36.57119 36.57119 0 20.185516 16.384 36.569516 36.57119 36.569516l658.284758 0c20.18719 0 36.57119-16.384 36.57119-36.569516C1024 784.384 1007.616 768 987.42881 768zM73.142379 146.286431C32.73119 146.286431 0 179.054431 0 219.42881s32.73119 73.142379 73.142379 73.142379c40.374379 0 73.142379-32.768 73.142379-73.142379S113.553569 146.286431 73.142379 146.286431z" p-id="4070"></path></svg>